# xmcd
#
# Track frame offsets:
#	150
#	25405
#	45508
#	61048
#	91790
#	107210
#	149360
#	157458
#	172983
#	190308
#	197078
#
# Disc length: 2784 seconds
#
# Revision: 1
# Processed by: cddbd v1.5.1PL0 Copyright (c) Steve Scherf et al.
# Submitted via: audiograbber 1.83.01
#
DISCID=950ade0b
DTITLE=Romantische - The Baroque
DYEAR=1900
DGENRE=
TTITLE0=Concerto No. 2 in F major - Allegro
TTITLE1=Concerto No. 2 in F major - Andante
TTITLE2=Concerto No. 2 in F major - Allegro assai
TTITLE3=Concerto No. 3 in G major - Allegro 
TTITLE4=Concerto No. 3 in G major - Allegro 
TTITLE5=The Royal Fireworks Music-Overture
TTITLE6=The Royal Fireworks Music-Bouree
TTITLE7=The Royal Fireworks Music-La Paix
TTITLE8=The Royal Fireworks Music-La Rejouissance
TTITLE9=The Royal Fireworks Music-Menuet I
TTITLE10=The Royal Fireworks Music-Menuet II
EXTD=
EXTT0=
EXTT1=
EXTT2=
EXTT3=
EXTT4=
EXTT5=
EXTT6=
EXTT7=
EXTT8=
EXTT9=
EXTT10=
PLAYORDER=
